HIERARCHY
ROOT Hips
{
 OFFSET 0.000000 0.000000 0.000000
 CHANNELS 6 Xposition Yposition Zposition Yrotation Xrotation Zrotation
 JOINT Chest
 {
  OFFSET 0.000000 9.585900 0.002600
  CHANNELS 3 Yrotation Xrotation Zrotation
  JOINT Chest2
  {
   OFFSET 0.000000 9.601200 -0.005300
   CHANNELS 3 Yrotation Xrotation Zrotation
   JOINT Chest3
   {
    OFFSET 0.000000 9.561800 0.000000
    CHANNELS 3 Yrotation Xrotation Zrotation
    JOINT Chest4
    {
     OFFSET 0.000000 9.552100 0.000000
     CHANNELS 3 Yrotation Xrotation Zrotation
     JOINT Neck
     {
      OFFSET 0.000000 14.453000 0.000000
      CHANNELS 3 Yrotation Xrotation Zrotation
      JOINT Head
      {
       OFFSET 0.000000 8.936500 -0.011300
       CHANNELS 3 Yrotation Xrotation Zrotation
       End Site
       {
        OFFSET 0.000000 17.073600 -0.006000
       }
      }
     }
     JOINT RightCollar
     {
      OFFSET -2.921100 9.558500 0.000000
      CHANNELS 3 Yrotation Xrotation Zrotation
      JOINT RightShoulder
      {
       OFFSET -13.519700 0.000000 0.000000
       CHANNELS 3 Yrotation Xrotation Zrotation
       JOINT RightElbow
       {
        OFFSET 0.000000 -29.696600 0.000000
        CHANNELS 3 Yrotation Xrotation Zrotation
        JOINT RightWrist
        {
         OFFSET 0.000000 -24.004700 0.000000
         CHANNELS 3 Yrotation Xrotation Zrotation
         End Site
         {
          OFFSET 0.000000 -17.728500 0.000000
         }
        }
       }
      }
     }
     JOINT LeftCollar
     {
      OFFSET 2.921100 9.558500 0.000000
      CHANNELS 3 Yrotation Xrotation Zrotation
      JOINT LeftShoulder
      {
       OFFSET 13.519700 0.000000 0.000000
       CHANNELS 3 Yrotation Xrotation Zrotation
       JOINT LeftElbow
       {
        OFFSET 0.000000 -29.696600 0.000000
        CHANNELS 3 Yrotation Xrotation Zrotation
        JOINT LeftWrist
        {
         OFFSET 0.000000 -24.004700 0.000000
         CHANNELS 3 Yrotation Xrotation Zrotation
         End Site
         {
          OFFSET 0.000000 -17.728500 0.000000
         }
        }
       }
      }
     }
    }
   }
  }
 }
 JOINT RightHip
 {
  OFFSET -7.771700 -0.012900 -0.001300
  CHANNELS 3 Yrotation Xrotation Zrotation
  JOINT RightKnee
  {
   OFFSET 0.000000 -40.869800 0.001200
   CHANNELS 3 Yrotation Xrotation Zrotation
   JOINT RightAnkle
   {
    OFFSET 0.000000 -39.717900 0.002100
    CHANNELS 3 Yrotation Xrotation Zrotation
    JOINT RightToe
    {
     OFFSET 0.000000 -4.965400 11.033500
     CHANNELS 3 Yrotation Xrotation Zrotation
     End Site
     {
      OFFSET 0.000000 -1.423100 5.872300
     }
    }
   }
  }
 }
 JOINT LeftHip
 {
  OFFSET 7.771700 -0.012900 -0.001300
  CHANNELS 3 Yrotation Xrotation Zrotation
  JOINT LeftKnee
  {
   OFFSET 0.000000 -40.869800 0.001200
   CHANNELS 3 Yrotation Xrotation Zrotation
   JOINT LeftAnkle
   {
    OFFSET 0.000000 -39.717900 0.002100
    CHANNELS 3 Yrotation Xrotation Zrotation
    JOINT LeftToe
    {
     OFFSET 0.000000 -4.965400 11.033500
     CHANNELS 3 Yrotation Xrotation Zrotation
     End Site
     {
      OFFSET 0.000000 -1.423100 5.872300
     }
    }
   }
  }
 }
}
MOTION
Frames: 5
Frame Time: 0.008333
0.000000 85.388000 0.000000 0.000000 -5.767877 0.000000 0.000000 11.653817 0.000000 0.000000 -5.885947 0.000000 0.000000 -0.000000 0.000000 0.000000 -0.000000 0.000000 0.000000 12.528835 0.000000 0.000000 0.711642 0.000000 0.000000 -0.000000 0.000000 0.000000 0.000000 -90.000000 0.000000 -2.309062 0.000000 0.000000 2.309062 0.000000 0.000000 -0.000000 0.000000 0.000000 -0.000000 90.000000 0.000000 -2.309062 0.000000 0.000000 2.309062 0.000000 0.000000 8.520406 0.000000 0.000000 1.905762 0.000000 -0.000000 -4.658285 0.000000 0.000000 -0.000000 0.000000 0.000000 8.520406 0.000000 0.000000 1.905762 0.000000 -0.000000 -4.658285 0.000000 0.000000 -0.000000 0.000000
-68.757351 55.591927 -34.247440 -176.719537 -15.993178 -1.009206 -0.104428 15.448072 0.096668 -0.006728 1.459658 0.025099 -0.003324 2.452283 0.035192 -0.019887 13.781955 0.216945 -0.433360 11.016789 -3.767220 0.399522 -14.077673 -3.893058 -0.370387 0.158472 0.583227 -0.661660 -8.554441 -4.850215 -70.619038 -47.066739 102.749816 -14.328901 13.419421 -0.577357 -5.195551 -2.940672 3.130961 0.950825 -10.060204 4.041751 55.663586 -42.233792 -99.789011 11.152142 1.936689 7.120619 -4.704315 -59.300590 12.148784 -24.284221 85.645354 -28.035858 -10.134504 -17.874842 11.799616 0.012496 -0.106032 0.087143 10.431143 -56.352707 -10.439846 91.153712 69.562093 93.710064 2.436729 -19.186039 -4.328182 0.007995 0.119758 0.008699
-68.757695 55.590951 -34.247921 -176.717658 -15.996011 -1.011159 -0.103791 15.450737 0.096910 -0.004574 1.459411 0.022920 -0.002777 2.452365 0.035230 -0.014524 13.782181 0.208690 -0.426067 11.037008 -3.811526 0.381211 -14.085808 -3.859252 -0.359715 0.157115 0.589418 -0.636122 -8.565680 -4.851987 -70.607065 -47.042749 102.781978 -14.298461 13.488912 -0.477851 -5.206631 -2.954145 3.128497 0.968806 -10.124875 4.127670 55.689657 -42.208746 -99.801862 11.203685 1.938443 7.116830 -4.702234 -59.299348 12.153418 -24.396886 85.641247 -28.148408 -10.137680 -17.860588 11.780639 0.013369 -0.105479 0.088405 10.417292 -56.352185 -10.425171 91.165303 69.567311 93.714682 2.435959 -19.188978 -4.326299 0.010274 0.121520 0.008650
-68.758758 55.589726 -34.248127 -176.712089 -15.998656 -1.011106 -0.100950 15.452513 0.092062 -0.004046 1.459648 0.022582 -0.006578 2.452789 0.037897 -0.014192 13.782681 0.203830 -0.421429 11.046157 -3.830221 0.452363 -14.029441 -4.021933 -0.343433 0.155773 0.591172 -0.567536 -8.587183 -4.867750 -70.621921 -47.032678 102.845481 -14.287101 13.536667 -0.425576 -5.210020 -2.965275 3.123969 0.987487 -10.181064 4.206082 55.718273 -42.196160 -99.820833 11.201242 1.881287 7.106980 -4.704261 -59.299488 12.156366 -24.598811 85.637540 -28.353971 -10.129361 -17.844110 11.763293 0.013159 -0.107715 0.088472 10.407179 -56.353311 -10.419347 91.178582 69.569356 93.720781 2.434191 -19.188440 -4.320702 0.011082 0.120241 0.006321
-68.759769 55.588363 -34.247941 -176.699464 -16.000638 -1.014688 -0.101260 15.452370 0.087385 -0.008491 1.460849 0.022907 -0.003453 2.454833 0.035611 -0.020530 13.781864 0.211700 -0.415067 11.054192 -3.854471 0.504309 -14.002460 -4.123452 -0.333047 0.155057 0.590537 -0.533819 -8.599485 -4.877954 -70.628266 -47.029969 102.869755 -14.253729 13.615946 -0.302112 -5.205393 -2.972347 3.116294 0.992201 -10.208603 4.250154 55.746285 -42.208013 -99.838339 11.174845 1.818510 7.100078 -4.711080 -59.297177 12.164241 -24.664857 85.632449 -28.431529 -10.135744 -17.829896 11.766202 0.022439 -0.103731 0.077292 10.386596 -56.355608 -10.407300 91.190635 69.569808 93.724391 2.426558 -19.189401 -4.316960 0.014687 0.121073 0.007039
